<svg width="27" height="29" viewBox="0 0 27 29" fill="none" xmlns="http://www.w3.org/2000/svg">
<path id="Vector" d="M18.9788 15.9005C19.9571 15.9005 20.8179 15.333 21.2614 14.4747L25.9311 5.49099C26.0411 5.28118 26.0975 5.04453 26.0947 4.80448C26.092 4.56443 26.0303 4.3293 25.9157 4.12234C25.801 3.91538 25.6374 3.74378 25.4411 3.6245C25.2448 3.50523 25.0225 3.44243 24.7963 3.44231H5.49145L4.26533 0.673828H0V3.44231H2.60877L7.30454 13.9487L5.54363 17.3263C4.59143 19.1812 5.84363 21.4375 7.8263 21.4375H23.4789V18.669H7.8263L9.26112 15.9005H18.9788ZM6.73061 6.2108H22.5789L18.9788 13.132H9.822L6.73061 6.2108ZM7.8263 22.8217C6.39147 22.8217 5.23057 24.0675 5.23057 25.5902C5.23057 27.1129 6.39147 28.3587 7.8263 28.3587C9.26112 28.3587 10.4351 27.1129 10.4351 25.5902C10.4351 24.0675 9.26112 22.8217 7.8263 22.8217ZM20.8701 22.8217C19.4353 22.8217 18.2744 24.0675 18.2744 25.5902C18.2744 27.1129 19.4353 28.3587 20.8701 28.3587C22.3049 28.3587 23.4789 27.1129 23.4789 25.5902C23.4789 24.0675 22.3049 22.8217 20.8701 22.8217Z" fill="white"/>
</svg>
